<svg width="376" height="112" viewBox="0 0 376 112" fill="none" xmlns="http://www.w3.org/2000/svg">
<path d="M0.788819 15.7158C0.788818 7.43155 7.50455 0.71582 15.7888 0.71582L360.789 0.715817C369.073 0.715817 375.789 7.43154 375.789 15.7158L375.789 96.7158C375.789 105 369.073 111.716 360.789 111.716L15.7888 111.716C7.50456 111.716 0.788819 105 0.788819 96.7158L0.788819 15.7158Z" fill="#202020"/>
<path d="M0.788819 15.7158C0.788818 7.43155 7.50455 0.71582 15.7888 0.71582L360.789 0.715817C369.073 0.715817 375.789 7.43154 375.789 15.7158L375.789 96.7158C375.789 105 369.073 111.716 360.789 111.716L15.7888 111.716C7.50456 111.716 0.788819 105 0.788819 96.7158L0.788819 15.7158Z" fill="url(#paint0_radial_1984_416)" fill-opacity="0.2"/>
<defs>
<radialGradient id="paint0_radial_1984_416" cx="0" cy="0" r="1" gradientUnits="userSpaceOnUse" gradientTransform="translate(62.0208 124.971) rotate(-90.1206) scale(90.3396 80.4988)">
<stop stop-color="white"/>
<stop offset="1" stop-color="white" stop-opacity="0"/>
</radialGradient>
</defs>
</svg>
