<svg width="436" height="197" viewBox="0 0 436 197" fill="none" xmlns="http://www.w3.org/2000/svg">
<path d="M0.713257 15.2797C0.713257 6.9954 7.42899 0.279663 15.7133 0.279663H420.713C428.998 0.279663 435.713 6.99539 435.713 15.2797V181.28C435.713 189.564 428.998 196.28 420.713 196.28H15.7133C7.42899 196.28 0.713257 189.564 0.713257 181.28V15.2797Z" fill="#202020"/>
<path d="M0.713257 15.2797C0.713257 6.9954 7.42899 0.279663 15.7133 0.279663H420.713C428.998 0.279663 435.713 6.99539 435.713 15.2797V181.28C435.713 189.564 428.998 196.28 420.713 196.28H15.7133C7.42899 196.28 0.713257 189.564 0.713257 181.28V15.2797Z" fill="url(#paint0_radial_1984_409)" fill-opacity="0.25"/>
<defs>
<radialGradient id="paint0_radial_1984_409" cx="0" cy="0" r="1" gradientUnits="userSpaceOnUse" gradientTransform="translate(376.529 195.465) rotate(-102.528) scale(168.346 159.929)">
<stop stop-color="white"/>
<stop offset="1" stop-color="white" stop-opacity="0"/>
</radialGradient>
</defs>
</svg>
